<svg id="Layer_1" data-name="Layer 1" xmlns="http://www.w3.org/2000/svg" viewBox="0 0 371 559"><defs><style>.cls-1{fill:#2d462f;}</style></defs><title>Artboard copy 9</title><path class="cls-1" d="M186.45,18.1a49.27,49.27,0,0,0-.48,7.46,59.24,59.24,0,0,1-1,9.56c-1.22,5.43-1.29,10.17-.21,13.63.68,2.37.61,2.85-1.15,5.43-2,3-2.51,7.79-1.36,12.67.48,2,.21,2.58-1.83,4.75a12.93,12.93,0,0,0-2.84,4.27c-.21,1-1.83,3.26-3.6,5a131.31,131.31,0,0,1-14.58,11.53c-1.76,1.08-17,11.19-19,12.61a11.62,11.62,0,0,1-2.17,1.29c-.82,0-7.26,4.68-12.27,8.88-13.23,11-21.16,21.63-26.25,34.85-3.32,8.55-4.34,12.14-5.35,18.31-.27,1.83-.88,4.48-1.22,5.76-1.49,4.68-.61,8.75,1.29,6.45a2.9,2.9,0,0,1,1.83-1,10.31,10.31,0,0,0,3.12-1,18.75,18.75,0,0,1,3.86-1.29c1-.2,2.92-.68,4.41-1.08a201.43,201.43,0,0,1,31.19-4.89c4.14-.33,9.7-.94,12.41-1.28,8.2-1.09,62.24-.89,76.75.34,6.92.61,13.9,1.35,15.6,1.76s5.36.88,8.2,1.22a31.85,31.85,0,0,1,6,1.08,20.26,20.26,0,0,0,4.27,1.09c7.19,1.15,14.51,3.19,18.38,5.15,2.91,1.43,3.32.41,2.1-5.29-.61-2.78-1.56-7.32-2.17-10.1-1-5-3.05-11.8-4.21-14.1-.27-.61-1.08-2.38-1.76-3.87a34.1,34.1,0,0,0-1.76-3.73c-.34-.54-.88-1.69-1.29-2.51-2.78-6.51-13.49-19-22-25.9-4.4-3.59-13.69-10-15.93-11.12-2.51-1.29-23.12-14.92-24.55-16.27a18.34,18.34,0,0,0-2.57-2c-3.8-2.37-7.6-6.44-8.89-9.42A21.23,21.23,0,0,0,193.7,71c-2.5-2.44-2.78-3.66-1.28-5.63,1.62-2.17,1-5.83-1.77-11.32-1.35-2.58-1.22-5.49.21-8.54a6.33,6.33,0,0,0,.27-3.39c-.27-1-.75-3.87-1.09-6.31-1.76-14-2.23-17.29-2.64-18.51S186.79,16.2,186.45,18.1Z"/><path class="cls-1" d="M160.21,173.45a209.48,209.48,0,0,0-30.85,2.84c-2.24.34-5.77,1-7.8,1.23a128.8,128.8,0,0,0-12.89,2.71c-1.69.4-4.13,1-5.42,1.35-7,1.7-12.54,4.41-14.71,7.19-1.5,2-1.83,3.26-2.11,7.66-.2,3.39,0,5.5.41,5.77s3-.07,5.7-.68,6.51-1.36,8.34-1.63,5.22-.81,7.46-1.22c16.07-3,32.27-4.27,60.34-4.88,38.72-.75,66.25.2,84.08,3.05,20.82,3.32,28.35,4.68,31.94,5.76a12.61,12.61,0,0,0,2.51.68c.27,0,.47-3.25.47-7.32,0-6.38-.13-7.46-1.35-8.41-1.77-1.56-7.05-3.93-8.61-3.93a3.24,3.24,0,0,1-2-.68,11.36,11.36,0,0,0-4.07-1.36c-1.83-.34-4.54-.88-6-1.28a140.21,140.21,0,0,0-14.24-2.85c-2.24-.27-6.38-.82-9.16-1.22C221.91,173.38,190.79,172.29,160.21,173.45Z"/><path class="cls-1" d="M154.44,197.86c-9.29.2-19.25.74-22,1.22-5,.74-13.23,1.83-21.7,2.85-2.44.27-5.83.88-7.6,1.28s-4.67,1.09-6.44,1.5-4.61,1-6.3,1.28c-9.16,1.63-10.17,3.39-10.17,17.57v10.23l-2.72,1.36a13.81,13.81,0,0,1-5.42,1.36c-3.46,0-5.42,1.83-5.42,5.08,0,2.65,1.49,3.8,3.32,2.51,4-2.71,12.13-5.69,23.46-8.47,2.24-.55,5.63-1.43,7.46-1.84s4.34-1,5.42-1.15,4-.68,6.44-1.22c5.22-1.08,12.89-2.17,21.57-3a47.89,47.89,0,0,0,7-1c.68-.47,7.32-1,29.09-2.44,10-.68,15.12-.61,31.87.34,11,.68,22.65,1.63,25.83,2.17a72.65,72.65,0,0,0,9.16,1,38,38,0,0,1,7.39,1,41.84,41.84,0,0,0,6.71,1c2.78,0,11.53,1.5,18.51,3.12a34.83,34.83,0,0,0,6,.95,22.08,22.08,0,0,1,5,.95c2.91,1,5.83,1.7,11.59,3.12a51.53,51.53,0,0,1,10.65,3.93c1.89.89,3.73,1.5,4.06,1.29s.48-1.63.34-3.19c-.34-3-1.69-4.06-5.62-4.06a13.63,13.63,0,0,1-4.62-1.29l-2.57-1.36-.41-5.63c-.27-3.11-.47-7.73-.47-10.3,0-5.29-1.29-8.14-4.68-10.11-2.58-1.49-11.19-3.79-14.31-3.86a22.37,22.37,0,0,1-5-.75,60.51,60.51,0,0,0-7.46-1.28c-6-.68-14.17-1.84-20.41-2.78C231.61,197.52,191.06,196.91,154.44,197.86Zm50.93,9.35c2.57,1.63,4.13,10.92,2.17,12.89-1,1-6.24,1.08-8.07.13-1.56-.88-1.63-2.64-.21-7.52C200.82,207.49,202.93,205.59,205.37,207.21Zm-50.86.68c1.15.75,2.31,5.43,2.31,9.43s-1.16,5.15-5.29,4.81l-2.51-.2.14-6.44c.13-5.22.33-6.58,1.28-7.26A3.64,3.64,0,0,1,154.51,207.89Zm99.14,3.87c1.55,2,2.78,12.88,1.62,14-.47.48-2,.41-4.68-.2l-3.93-1v-6.1c0-7.66.34-8.48,3.32-8.48A4.1,4.1,0,0,1,253.65,211.76Zm-140.84,7.18a57.29,57.29,0,0,1,.14,7.19c-.41,1-5.16,2.38-7.19,2.1-1.42-.2-1.49-.47-1.29-5.62.34-8.48,3.12-13.09,6.58-10.85C112.2,212.44,112.47,213.59,112.81,218.94Z"/><path class="cls-1" d="M167,247.69c-1.22.68-4.75.95-13.49.95-8.41,0-12.07.28-12.82.89-3,2.5-15.19,3.93-18.65,2.17-2.17-1.16-2.78-.82-5.29,3.11a13,13,0,0,1-4.2,3.26c-4.2,2.1-7,5.56-7.53,9.36-.74,5.83-3.52,8.61-9.56,9.76a4.19,4.19,0,0,0-2.85,2,15,15,0,0,1-2.5,3.52,7,7,0,0,0-1.77,2.51A4.22,4.22,0,0,1,87,287a41.44,41.44,0,0,0-4.41,6.38c-1.7,2.84-3.46,5.62-3.87,6.3-.61.88-.54,1.7.41,3.73,1.15,2.58,1.15,2.92-.13,9.63-.75,3.87-1.7,7.32-2.11,7.73a3.72,3.72,0,0,0-.74,2.24,3.46,3.46,0,0,1-1,2.3c-1.36,1.16-1.29,4.48.34,9.56,1,3.39,1.76,4.61,3.32,5.5,2,1.15,5.49,5.9,5.49,7.52a2.74,2.74,0,0,0,.75,1.63,7.72,7.72,0,0,1,1.22,3c.34,1.63,1.09,2.58,2.92,3.59A39,39,0,0,1,94.5,360a37.06,37.06,0,0,0,5.7,3.93c2.44,1.23,3.25,1.29,7.25.75,2.51-.41,7.73-.81,11.6-1,6.37-.34,7.53-.54,11.87-2.78,4-2,5.49-2.37,9.22-2.37,5.49,0,8.2,1.49,10,5.35,1.29,3,2.78,3.53,5.09,1.77a9.09,9.09,0,0,1,4.48-1c3.79,0,4.67,1.09,4.67,5.63,0,4-1.08,13.49-1.69,14.85s.54,3.25,4.41,8,9.42,16.27,9.42,19.53a16.87,16.87,0,0,0,1.36,5.22c1.83,4.27,1.69,5.76-.68,9.63a31.87,31.87,0,0,0-5.22,15.8c-.27,4.47-.07,5.49,1.42,8.13.95,1.7,2.44,4.55,3.46,6.44s2.31,4.28,3,5.43a18.79,18.79,0,0,1,1.7,6.1c.68,5.77,2.44,11.12,4.54,13.9a40.69,40.69,0,0,1,3.39,5.43,43.34,43.34,0,0,0,3,5.08c2,2.71,3,6,2.24,7.19a4.9,4.9,0,0,0,.68,5.63c1.42,1.29,5.42,1,7.86-.68.82-.61,3.19-1,6-1,5.09,0,13.16-1.56,16.48-3.19,2-.95,6.92-7.05,12.75-15.73,1.83-2.71,2.44-4.27,2.44-6.44,0-2.64.2-3,2.37-4a14.23,14.23,0,0,1,3.12-1.15A8.44,8.44,0,0,0,249,473c1.84-1.36,2-1.84,2-5.23a26,26,0,0,0-1-6.51c-1.49-4.06-1.29-6.37.54-7a27.52,27.52,0,0,0,4.55-3.25c3.39-3.05,6.78-5,8.61-5,.68,0,2.78-1.09,4.74-2.44l3.6-2.44-.41-9.29c-.27-5.63-.74-9.63-1.29-10.24-1.08-1.36-2.37-6.58-2.3-9.49,0-1.29-.21-4.07-.41-6.24-.41-3-.27-4.14.61-5.36a6.43,6.43,0,0,0,1.09-3,3.49,3.49,0,0,1,1-2.31,2.82,2.82,0,0,0,1-1.69c0-.48,1.76-2.71,3.93-5s5.43-5.7,7.26-7.66a78.46,78.46,0,0,1,7.46-6.85c6.44-4.95,11.86-11.46,11.86-14.17a14,14,0,0,1,2-4,13.33,13.33,0,0,0,2-4.28,6,6,0,0,1,.95-2.71c1.22-1.9,2-8,1.15-9.29-.54-.74-1-.81-2.23-.2S288.23,343,286.26,343a16.08,16.08,0,0,1-3.32-2.71c-2.1-2-2.78-3.05-2.51-4.07s-.34-2.1-2-3.73c-1.35-1.29-2.84-2.37-3.32-2.37s-1.42-.75-2-1.7a14.16,14.16,0,0,0-3.26-3.05,8.88,8.88,0,0,1-3.39-4.2c-2.23-5.49-3.39-7.46-5.08-8.82s-4.14-6.57-4.14-9.22a4.14,4.14,0,0,0-1.42-2.71c-2.31-1.9-4.68-6-4.68-8.2,0-1.22-1.09-3.39-2.92-5.9-3.79-5.29-5.22-7.53-5.22-8.41s1.29-.82,2.44.34a3.79,3.79,0,0,0,2.1,1c.82,0,.95-.47.61-2.23-.27-1.16-.67-3.53-.88-5.09-.47-3.52-2.51-4.95-5.29-3.66-1.42.68-2,.54-4.13-.88-2.51-1.7-2.71-1.7-7.6.47-2.64,1.16-3.12,1.22-6.37.21a28.33,28.33,0,0,0-6.44-1c-2.85,0-6.1-1.42-7.19-3.19-.68-1.15-4.41-1.69-7.25-1-2,.47-2.38.88-2.85,3.05-1.09,5.15-2.78,6.37-5.7,4.2a7.11,7.11,0,0,0-3.66-1c-2-.06-2.78-.61-5-3.32-2.57-3.12-2.78-3.25-5.49-2.91a8.69,8.69,0,0,1-5-.89c-2.17-1.08-2.23-1.28-1.83-4.06.41-2.31.27-3-.68-3.33s-1.08-1-.74-3.73.2-3.45-.61-3.73C169.77,246.47,168.89,246.61,167,247.69Z"/><path class="cls-1" d="M49.68,256.65a13.45,13.45,0,0,0-7,7.73c-1.22,3.39-1.29,3.66-.07,7.11s1.16,3.6-.27,6-1.69,2.37-5,2.31c-4.2-.14-6.91,1.15-9.83,4.61-2,2.3-2.17,2.91-2.17,7.32,0,4,.27,5.15,1.77,7.32,1.69,2.45,1.76,2.72.88,5.63s-1,3.05-3.39,3.05c-4.88,0-10.78,6.51-10.78,11.87,0,2.71,2,6.51,4.88,9.09s2.71,2.64,2,5-2.91,4.55-4.67,4.55c-1.29,0-4.28,2.44-5.7,4.61C9.41,344.12,9,346,9,349c0,5.15,1.56,7.8,6.44,10.64,3.26,1.9,3.19,1.49,1.7,7.05a2.46,2.46,0,0,1-1.9,1.9,10.08,10.08,0,0,0-3.8,2.92C9.14,374,9,374.42,9,378.76c0,6.17,1.42,8.28,7.32,11,4.48,2,6.58,8.2,3.26,9.49-2.78,1-4.48,4.68-4.48,9.7,0,4.27.07,4.47,2.92,7.46,2.44,2.44,3.52,3.12,6.3,3.52,3.87.55,5,1.29,5,3.33a3.61,3.61,0,0,0,.82,2.3c.54.54.33,1.36-1,3.12-4.82,6.24-3.6,13.9,2.85,18.17,1.15.82,3.05,1.22,5.49,1.22,3.73,0,3.8,0,5.35,3s1.63,3.05.55,6c-1.43,3.6-1.43,6.44-.21,9.43,2.45,5.83,10.65,9.49,14.51,6.51.61-.48,1.29-.27,2.31.61,3.93,3.46,3.93,3.39,3.93,9.08,0,10.38,3.94,13.16,17.16,12.14,1.56-.13,2.78.14,3.12.68a7.56,7.56,0,0,0,2.17,1.69c1.35.61,1.69,1.5,2,4.62.48,4.2,3,8.47,6.17,10.3,2.31,1.43,9.29,1.43,11.12.07s4.54-1.22,7.32.41c1.7,1,2.45,1.9,2.45,3,0,5.7,6.78,11.87,13.08,11.87,1.7,0,5.7-2.31,7.6-4.34s2.3-2.11,4.88-.82a20.7,20.7,0,0,0,3.12,1.36,2,2,0,0,1,1.15,1.9c.07,2.85,3,6.91,6.17,8.47,6,3,12.21,1.36,15.19-4.13,1.29-2.31,1.49-2.44,4.81-2.44,3.53,0,3.6.06,5.56,3.32,2.78,4.41,5.63,6.37,10,6.71,2.78.2,4.07,0,5.83-1.08,2.51-1.56,5.29-5,5.29-6.51s2.17-2.44,5.29-2.44c2.3,0,3,.4,5.15,2.91,3.12,3.66,7.19,5,11.46,3.73,4.75-1.35,8.61-5.15,8.61-8.47,0-1.09.75-1.9,2.71-2.92,3.46-1.76,4.48-1.7,6.45.41,2.23,2.44,6,4.34,8.54,4.34,4.68,0,10.78-4.41,10.78-7.8a7.41,7.41,0,0,1,4.14-7.05c3.25-1.7,4.88-1.77,7.18-.27,1.9,1.22,7.87,1.62,11.19.67a10.41,10.41,0,0,0,3.94-3.18c1.76-2.24,2.17-3.33,2.23-6.51l.07-3.87,4.14-3.25c2.91-2.38,4.47-3.19,5.56-3,2,.48,4.2-.47,6.51-2.64,1.49-1.36,1.83-2.24,1.56-3.46s.4-2.64,4.13-6.91c6.65-7.67,6.72-7.67,9.77-6.45,2.3.88,2.91.88,6.17-.2,4.13-1.29,5.49-2.58,7.32-6.64,1.7-3.6,1.7-5.5,0-9.23s-1.7-4.54.2-7.32c1.43-2.1,1.7-2.24,5.77-2.24,3.59,0,4.68-.27,6.64-1.76,5.63-4.34,6.65-10.37,2.71-16.41-2-3-2.23-3.8-1.76-5.63.95-3.12,1.76-3.86,5.43-4.34,6.37-.88,10.57-7.32,9.15-14.1-.68-2.92-2.92-6.58-4.14-6.58-1.49,0-2.23-2.71-1.42-5.08.95-2.92,1.49-3.39,4.47-4.41a14,14,0,0,0,4.95-3.19c2.17-2.24,2.24-2.51,2.24-7.66s-.07-5.42-2.3-7.73a9.27,9.27,0,0,0-3.12-2.44c-1.63,0-3-2.51-3-5.22,0-2.38.27-2.85,1.69-3.19,2.44-.61,6-4.61,7-7.93a11.64,11.64,0,0,0-7.67-14.31c-2.44-.81-2.71-1.15-3.18-3.93s-.48-3.12,1.69-5.09c5-4.47,6.1-10.91,2.58-15.73-2.51-3.46-6-5.63-9.09-5.63-2.17,0-2.51-.27-3.79-2.91a20.6,20.6,0,0,1-1.43-3.32,11,11,0,0,1,2-2.65c1.76-2,2-2.78,2-6.78s-.27-4.81-2-7.26a10.72,10.72,0,0,0-10.31-4.67c-2.85.2-3.32.06-4.54-1.63-1.7-2.24-1.83-4.48-.41-7.12s1.29-4.54-.34-8c-2.44-5.49-7.26-7.94-13.56-6.85-2.1.34-3.26,1.15-5.09,3.32-2.17,2.65-2.37,3.32-2.37,7.26,0,5.08,1.7,8.27,5.83,10.78,2.1,1.35,3.05,1.49,6.78,1.15,4.14-.41,4.41-.34,5.49,1.36s1.09,1.83-.33,4.34c-2.31,3.93-2.11,10.71.33,13.9a12.79,12.79,0,0,0,10,5c2.92,0,3.19.14,4.14,2.38.47,1.29,1,2.44,1,2.57a28.86,28.86,0,0,1-2.38,3.26c-2.17,2.71-2.37,3.39-2.37,7.39,0,6.24,2.24,9.36,7.8,10.92a15.07,15.07,0,0,1,3.59,1.42c.95.81,1.15,6.65.2,6.65-1.28,0-4.88,3.59-6.17,6.17a9.52,9.52,0,0,0,0,9.49c1.36,2.58,6.11,6.71,7.8,6.71.88,0,1.83,4.27,1.29,5.77a5.72,5.72,0,0,1-2.51,1.76c-6.51,2.51-9.7,10.17-6.71,15.8,1.56,2.91,3,4.27,5.15,5.15s2.24,2.17.75,5.7c-.88,2.1-1.36,2.44-3.26,2.44A9.08,9.08,0,0,0,340,400.6c-1.83,2.17-3.53,6.1-3.53,8.07,0,2.64,2.45,7.32,4.48,8.68s2,1.89.27,5.29c-1.29,2.5-1.49,2.57-5.08,2.78-4.14.27-6,1.28-8.28,4.81-2.17,3.19-2.23,10.37-.13,12.95,1.49,2,1.35,4-.61,6.65-1,1.35-1.56,1.49-4.95,1.15-6.31-.61-10.78,2.57-12.75,9.15-.68,2.51-.68,3.46.34,6.38,1.08,3.32,1.08,3.45-.34,5.35-3.12,4.21-8.68,9.7-12.14,11.87a17.81,17.81,0,0,0-4.74,4.34c-1.16,1.83-2.72,3.25-5.9,5.29-2.51,1.56-3.05,1.62-4.14.74-2.71-2.23-9.15-3.32-11.66-2a17.89,17.89,0,0,1-2.31,1c-.68.2-2.1,1.62-3.25,3.18-1.7,2.38-2,3.46-2,6.72,0,3.79-.06,3.93-2.71,5.69-2.17,1.43-3,1.63-4.07,1.09-.74-.41-1.35-1-1.35-1.36s-1.29-1.29-2.85-2.1c-7-3.6-16.82,1.35-16.82,8.54,0,1.22-.61,2.1-2.17,3-3.12,1.9-3.86,1.7-7.18-1.69s-5.77-4.14-10.79-3.39-7.32,3-9.28,9.29c-.28.95-1.16,1.22-3.94,1.22-3.39,0-3.73-.14-5.22-2.44-2.64-3.87-5.9-5.7-10.1-5.7s-6.78,1.49-9.36,5.56c-1.69,2.65-1.69,2.65-5.56,2.44-3.53-.2-3.86-.34-4.2-1.9-.95-4.88-5.7-8.34-11.46-8.4-3.05,0-4.27.27-6.11,1.62a10.73,10.73,0,0,0-2.84,3.19,2.22,2.22,0,0,1-2.31,1.56c-2.64,0-5.76-1.83-5.76-3.46,0-2.44-2.65-7.25-4.95-8.95-4.27-3.19-11.26-3.05-14.51.27-2.31,2.38-4.61,2.44-7.26.27-1.76-1.42-1.9-1.83-1.29-3.25.89-2-.4-7.32-2.23-9.36-2-2.3-6.31-4-9.77-4a8.83,8.83,0,0,0-6.24,2c-2.5,1.84-2.91,2-3.93,1a3.89,3.89,0,0,0-1.83-1c-1.29,0-2.44-3.11-1.63-4.61,2.17-4.06-.27-11.25-4.74-14.1-3-1.9-8.34-2.24-10.51-.61-1.9,1.42-3.53,1.22-5.36-.75s-2-3.25-.68-5.69c2.71-4.75-.68-12.95-6.37-15.33-2.65-1.08-6.38-1.22-8.14-.27-2.85,1.49-6-5.56-3.32-7.66a11.31,11.31,0,0,0,2.1-3.66c1-2.65,1-3.12,0-6.24-1.63-5.08-4.54-7.59-10.1-8.47l-4.55-.75-.81-2.92c-.81-2.71-.81-3,.54-4.2,2.72-2.58,3.87-5,3.87-8.34,0-6.1-4.75-12-9.77-12-2.78,0-3-.27-3.52-4.34-.41-2.85-.34-3.12,1.29-3.73a12,12,0,0,0,3.86-3.53,8.7,8.7,0,0,0,2-6.17c0-5-2.72-9.42-6.78-10.78-4.28-1.49-4.28-6.44-.07-8.81a17.35,17.35,0,0,0,4.68-4.55c3.11-4.54,3-9-.07-13.15a14.58,14.58,0,0,0-4.07-3.8c-1.56-.74-1.76-1.22-1.42-2.71.74-3.12,2.17-4.81,4.61-5.29,2.64-.47,7.18-4.54,7.18-6.44a2.16,2.16,0,0,1,.68-1.63c2-1.22.07-8.27-3-11.12a5.17,5.17,0,0,1-1.76-3.52c0-3.46.54-4,4.13-4,4.34,0,7.46-1.69,10-5.42,3.18-4.61,2.71-9.15-1.43-15-1-1.5,1.9-5.63,3.53-4.89a20.32,20.32,0,0,0,4.81.75c2.85.2,3.94,0,4.61-.81a3,3,0,0,1,1.77-1.09c.47,0,1.9-1.22,3-2.71,2-2.44,2.1-3.12,2.1-7.46,0-5-.75-6.65-4.07-9.15C58.23,256.58,51.72,255.76,49.68,256.65Z"/><path class="cls-1" d="M298.26,434.64c-2.24,3-4.68,5.42-6.17,6.1-1.29.68-3.52,1.69-4.95,2.37-4.13,1.9-5.56,3.53-5.56,6.38a14.47,14.47,0,0,0,.61,4.2c.68,1.7,0,4.48-1.9,7.87-1.08,1.89-.61,11.32.61,13.63a4.87,4.87,0,0,0,5.5,2.37c2.44-.54,6.3-4.48,8-8.14,2.44-5.36,3.45-7.86,3.45-8.81a9.07,9.07,0,0,1,.95-2.85c.55-1,2.38-4.75,4.07-8.21,2.71-5.42,3.12-6.84,3.12-10.44,0-4.34-1.69-9.29-3.19-9.36C302.33,429.75,300.3,432,298.26,434.64Z"/></svg>